# xmcd CD database file
# Copyright (C) 1993-1998 Ti Kan
#
# Track frame offsets:
# 183
# 17800
# 40655
# 56470
#
# Disc length: 978 seconds
# Revision: 0
# Processed by: cddbd v1.4b41PL1 Copyright (c) Steve Scherf et al.
# Submitted via: CDSpectrumPro v3.3.331
#
DISCID=2703d004
DTITLE=Cookie Crew - Secrets (of Success) [CD single)
DYEAR=1900
DGENRE=
TTITLE0=Secrets (of Success)
TTITLE1=Secrets (of Success) cooks mix
TTITLE2=Secrets (of Success) live at the bar-b-que mix
TTITLE3=Mental Manic
EXTD=
EXTT0=
EXTT1=
EXTT2=
EXTT3=
PLAYORDER=
